<svg id="noun_Shipping_3327096" xmlns="http://www.w3.org/2000/svg" width="67.985" height="46.354" viewBox="0 0 67.985 46.354">
  <g id="Group_3" data-name="Group 3" transform="translate(0)">
    <path id="Path_10" data-name="Path 10" d="M21.886,47.628a6.043,6.043,0,0,1,0,3.09,6.174,6.174,0,0,1-11.959,0,6.043,6.043,0,0,1,0-3.09c0-.015,0-.015.015-.031a2.158,2.158,0,0,1,.139-.448,6,6,0,0,1,.958-1.777A2.427,2.427,0,0,1,11.363,45a2.235,2.235,0,0,1,.324-.34,6.211,6.211,0,0,1,3.585-1.638c.216-.015.417-.031.633-.031s.417.015.633.031a6.211,6.211,0,0,1,3.585,1.638,2.235,2.235,0,0,1,.324.34,2.427,2.427,0,0,1,.324.371,6,6,0,0,1,.958,1.777,2.158,2.158,0,0,1,.139.448C21.886,47.612,21.886,47.612,21.886,47.628ZM46.808,9H3.545A1.55,1.55,0,0,0,2,10.545V49.173a1.55,1.55,0,0,0,1.545,1.545H6.774a8.092,8.092,0,0,1-.139-1.545,8.475,8.475,0,0,1,.2-1.916V46.3l.4-.386A8.956,8.956,0,0,1,8.6,43.487a4.469,4.469,0,0,1,.479-.587,6.56,6.56,0,0,1,.572-.556,9.152,9.152,0,0,1,5.315-2.395c.4-.031.664-.046.943-.046s.541.015.8.031a9.3,9.3,0,0,1,5.5,2.457,4.216,4.216,0,0,1,.525.525,5.578,5.578,0,0,1,.51.6A8.734,8.734,0,0,1,24.559,45.9l.4.371.015.958a8.85,8.85,0,0,1,.2,1.947,9.935,9.935,0,0,1-.124,1.545H46.947a8.452,8.452,0,0,1-.139-1.545,9.113,9.113,0,0,1,1.545-5.114V10.545A1.545,1.545,0,0,0,46.808,9Zm4.635,7.8V30.632H69A20.047,20.047,0,0,0,51.444,16.8Zm17,24.645h1.545V36.812a20.5,20.5,0,0,0-.232-3.09H51.444v7.432A9.05,9.05,0,0,1,56.079,39.9a9.278,9.278,0,0,1,9.271,9.271,8.452,8.452,0,0,1-.139,1.545H68.44a1.55,1.55,0,0,0,1.545-1.545V44.538H68.44a1.545,1.545,0,0,1,0-3.09Zm-6.366,6.211c-.015-.031-.015-.046-.031-.062a2.159,2.159,0,0,0-.139-.448A5.614,5.614,0,0,0,60.622,45a2.235,2.235,0,0,0-.324-.34,6.121,6.121,0,0,0-4.218-1.669,3,3,0,0,0-.525.031,1.524,1.524,0,0,0-.371.046,4.64,4.64,0,0,0-.8.17c-.108.031-.2.062-.294.093a5.779,5.779,0,0,0-1.7.9,3.356,3.356,0,0,0-.448.371.155.155,0,0,0-.077.062,3.658,3.658,0,0,0-.417.433A6.18,6.18,0,0,0,49.9,49.173a5.618,5.618,0,0,0,.2,1.53.881.881,0,0,1-.2.015h.2a6.175,6.175,0,0,0,11.959,0,.054.054,0,0,0,.015-.031c.046-.185.077-.371.108-.556a5.978,5.978,0,0,0,0-1.916C62.151,48.03,62.12,47.844,62.074,47.659Z" transform="translate(-2 -9)" fill="#2c7cb0"/>
  </g>
</svg>
