<svg id="noun_Battery_1346034" xmlns="http://www.w3.org/2000/svg" width="69" height="34.5" viewBox="0 0 69 34.5">
  <g id="Group_4" data-name="Group 4" transform="translate(0)">
    <path id="Path_11" data-name="Path 11" d="M75.5,993.12a3.044,3.044,0,0,0-3-3H68v-4.5a3.044,3.044,0,0,0-3-3H9.5a3.044,3.044,0,0,0-3,3v28.5a3.044,3.044,0,0,0,3,3H65a3.044,3.044,0,0,0,3-3v-4.5h4.5a3.044,3.044,0,0,0,3-3v-13.5Zm-4.5,1.5v10.5H68v-10.5Zm-7.5-7.5v25.5H11v-25.5H63.5Zm-2.25,2.25h-48v21h48v-21Z" transform="translate(-6.5 -982.62)" fill="#2c7cb0"/>
  </g>
</svg>
