<svg id="noun_Flame_559938" xmlns="http://www.w3.org/2000/svg" width="68.199" height="76.456" viewBox="0 0 68.199 76.456">
  <path id="Path_8" data-name="Path 8" d="M49.238,90.482a16.706,16.706,0,0,1-6.957,2.523,20.427,20.427,0,0,0,1.682-2.752c-3.135-.076-6.422-.153-9.786-.153-3.135,0-6.193.076-9.1.153a32.747,32.747,0,0,0,2.217,2.752,44.328,44.328,0,0,1-7.034-2.6C8.334,91.017,0,92.317,0,93.846c0,2.064,15.291,3.823,34.1,3.823s34.1-1.682,34.1-3.823C68.2,92.394,60.477,91.094,49.238,90.482Z" transform="translate(0 -21.213)" fill="#2c7cb0"/>
  <path id="Path_9" data-name="Path 9" d="M27.16,70.875S18.291,63,21.35,55.813c1.835-4.358,7.569-5.352,6.957-14.68,5.2,2.523,4.587,6.193,4.587,6.193s5.428-3.135,2.37-14.144C60.648,50,44.9,70.951,44.9,70.951s11.851-1.835,15.291-18.426c2.523-11.774-.229-29.283-11.7-39.145C49.333,26,43.828,27.295,43.828,27.295S38.17,9.481,25.172,0c3.058,23.7-8.334,31.806-8.334,31.806s2.37-3.746-4.282-10.474C11.181,35.093,5.523,38.152,5.6,48.244,5.829,62.159,27.16,70.875,27.16,70.875Z" transform="translate(-1.318)" fill="#2c7cb0"/>
</svg>
