<svg xmlns="http://www.w3.org/2000/svg" width="69.999" height="37.343" viewBox="0 0 69.999 37.343">
  <g id="noun_Trombone_568102" transform="translate(0 -23.326)">
    <g id="Group_1" data-name="Group 1" transform="translate(0 23.326)">
      <path id="Path_1" data-name="Path 1" d="M60.581,58.969H23.391a.972.972,0,0,1,0-1.945H60.581c3.05,0,6.686-.852,6.686-4.91v-.7a5.493,5.493,0,0,0-1.228-4.141C64.617,45.815,62,45.693,59.45,45.693l-34.469.026H8.958c-2.813,0-4.7-2.2-4.7-5.482,0-3.375,1.891-5.643,4.7-5.643l33.728.015c3.083,0,12.437,0,12.78-.007h.018c.087,0,7.761.608,12.571,5.467V27.033c-4.75,4.676-12.612,5.49-12.7,5.49-.391,0-38.983.008-39.826.018H7.851c-3.479,0-5.909,2.75-5.909,6.686V40.74c0,3.936,2.43,6.686,5.909,6.686H59.646c3.636,0,5.481,1.355,5.481,4.028,0,1.564-.713,4.189-5.481,4.189H23.529a.972.972,0,1,1,0-1.943H59.646c3.538,0,3.538-1.575,3.538-2.246,0-1.009-.274-2.085-3.538-2.085H7.852C3.3,49.369,0,45.739,0,40.74V39.228c0-5,3.3-8.629,7.852-8.629l7.651.007c.818-.015,5.837-.019,39.806-.026.605-.071,9.387-1.205,12.9-6.8A.972.972,0,0,1,70,24.3V42.842a.972.972,0,0,1-1.795.517c-3.735-5.952-12.638-6.809-12.724-6.811v0c-.488.008-2.6.009-12.794.012L8.958,36.54c-2.038,0-2.76,1.993-2.76,3.7,0,.83.2,3.538,2.761,3.538H24.981l34.47-.026c2.968,0,6.028.167,7.978,2.16a7.366,7.366,0,0,1,1.781,5.522v.682C69.21,56.407,65.985,58.969,60.581,58.969Z" transform="translate(0 -23.326)"/>
      <path id="Path_2" data-name="Path 2" d="M30.146,72.916H28.289c-.944,0-1.423-.423-1.423-1.262V65.41c0-.836.479-1.262,1.423-1.262h1.857c.944,0,1.423.425,1.423,1.262v6.244C31.569,72.492,31.09,72.916,30.146,72.916ZM28.42,71.361h1.593V65.7H28.422Z" transform="translate(-8.06 -35.573)"/>
      <path id="Path_3" data-name="Path 3" d="M17.377,50.04a.971.971,0,0,1-.972-.972V40.993a.972.972,0,1,1,1.943,0v8.076A.971.971,0,0,1,17.377,50.04Z" transform="translate(-4.922 -28.335)"/>
      <path id="Path_4" data-name="Path 4" d="M27.445,50.04a.971.971,0,0,1-.972-.972V40.993a.972.972,0,0,1,1.943,0v8.076A.971.971,0,0,1,27.445,50.04Z" transform="translate(-7.942 -28.335)"/>
      <path id="Path_5" data-name="Path 5" d="M43.972,50.04A.971.971,0,0,1,43,49.068V40.993a.972.972,0,1,1,1.943,0v8.076A.972.972,0,0,1,43.972,50.04Z" transform="translate(-12.901 -28.335)"/>
      <path id="Path_6" data-name="Path 6" d="M51.063,65.583a.971.971,0,0,1-.972-.971V59.018a.972.972,0,0,1,1.943,0v5.594A.971.971,0,0,1,51.063,65.583Z" transform="translate(-15.028 -33.743)"/>
      <path id="Path_7" data-name="Path 7" d="M57.27,65.583a.971.971,0,0,1-.972-.971V59.018a.972.972,0,0,1,1.943,0v5.594A.972.972,0,0,1,57.27,65.583Z" transform="translate(-16.89 -33.743)"/>
    </g>
  </g>
</svg>
