<svg xmlns="http://www.w3.org/2000/svg" width="323.191" height="350.274" viewBox="0 0 323.191 350.274">
  <g id="A_man_playing_saxophone_illustration" data-name="A man playing saxophone illustration" transform="translate(-164.135 -118.466)">
    <path id="Path_646" data-name="Path 646" d="M301.764,430.377s-61.049,21.564-64.693-23.944.452-65.537-42.316-83.728S149.7,189.945,215.687,199.222s66.35-54.574,91.619-41.774,17.258,81.258,92.522,64.332,106.166,39.515,76.138,86.83-82.674,24.757-76.138,76.319c6.536,51.532-30.991,62.284-54,51.381C322.786,425.408,301.764,430.377,301.764,430.377Z" transform="translate(0 -26.052)" fill="#eaefe8"/>
    <g id="Group_13" data-name="Group 13" transform="translate(234.621 118.466)">
      <path id="Path_647" data-name="Path 647" d="M492.857,1224.1s-5.482,4.307-6.566,5.9-6.445,8.764-3.554,10.963,10.571-5,12.348-7.258,2.741-6.987,2.741-6.987Z" transform="translate(-456.675 -891.105)" fill="#532a3a"/>
      <path id="Path_648" data-name="Path 648" d="M545.759,779.1s-6.777,17.77-7.74,32.015c-.964,14.216,15.119,49.032,11.114,50.628s-12.168,7.289-16.173,17.137-14.667,34.244-14.667,34.244-.181.843,1.988,1.988,2.952.633,2.952.633,30.238-36.383,36.443-49.815,13.553-75.867,13.553-75.867Z" transform="translate(-482.109 -580.13)" fill="#7a6466"/>
      <path id="Path_649" data-name="Path 649" d="M552.8,1105.993c-1.235,2.982-2.771,6.626-4.4,10.361a26.789,26.789,0,0,0,14.848-.271c4.156-5.481,8.313-11.114,11.626-16.083C574.874,1100.03,562.164,1102.048,552.8,1105.993Z" transform="translate(-503.152 -804.381)" fill="#532a3a"/>
      <path id="Path_650" data-name="Path 650" d="M832.969,1224.1s5.482,4.307,6.566,5.9,6.445,8.764,3.554,10.963-10.571-5-12.348-7.258S828,1226.72,828,1226.72Z" transform="translate(-698.542 -891.105)" fill="#532a3a"/>
      <path id="Path_651" data-name="Path 651" d="M689.568,779.1s6.777,17.77,7.74,32.015c.964,14.216-15.119,49.032-11.114,50.628s12.168,7.289,16.173,17.137,14.668,34.244,14.668,34.244.181.843-1.988,1.988-2.952.633-2.952.633-30.238-36.383-36.443-49.815S662.1,790.063,662.1,790.063Z" transform="translate(-582.608 -580.13)" fill="#7a6466"/>
      <path id="Path_652" data-name="Path 652" d="M732.689,941.218s-10.632-24.4-14.667-34.244c-4.006-9.849-12.168-15.571-16.173-17.137-4.006-1.6,12.077-36.413,11.114-50.628a103.515,103.515,0,0,0-3.825-19.908c-12.107,5.21-21.173,33.22-23.311,40.6-.482,1.656-.934,3.524-1.325,5.481.753,4.367,1.536,8.614,2.349,12.469,4.036-7.56,9.427-16.384,13.342-17.95,7.048-2.831,2.59,11.505,0,24.155s2.59,11.776,8.282,16.565S730.7,943.236,730.7,943.236C732.869,942.061,732.689,941.218,732.689,941.218Z" transform="translate(-598.262 -608.223)" fill="#532a3a"/>
      <path id="Path_653" data-name="Path 653" d="M602.3,221.6s.542,8.885,1.446,16.324c.9,7.469-.241,9.427-.241,9.427l2.409-2.59s.753.813,0,3.313,1.958,1.024,1.958,1.024a7.781,7.781,0,0,0,2.59,2.319c1.355.572,19.908.542,19.908.542l1.385-2.379,2.319,1.175s-1.265-2.409,0-9.005-8.614-17.258-8.614-17.258L613.986,220.7" transform="translate(-540.819 -189.909)" fill="#262320"/>
      <path id="Path_654" data-name="Path 654" d="M593.829,233.2s5.361,22.227,3.7,26.956S583.8,270.848,583.8,270.848s21.685,12.228,23.673,12.559c2.018.361,17.107-21.052,15.42-20.9-9.638.994-5.9-10.993-5.9-10.993Z" transform="translate(-527.891 -198.644)" fill="#f9a97d"/>
      <path id="Path_655" data-name="Path 655" d="M637.93,165.318c-1.235-4.367-4.066-15.511-17.258-14.878-12.228.572-15.722,8.1-16.926,14.4a2.654,2.654,0,0,0-.512.06c-2.56.452-4.1,3.674-3.464,7.228.572,3.193,2.711,5.542,5,5.632.843,3.223,1.747,5.662,1.747,5.662a39.3,39.3,0,0,0,3.433,8.252,17.008,17.008,0,0,0,15.3,8.313c6.777-.3,10.09-12.8,10.722-16.746s.09-6.957,1.355-7.71C638.562,174.805,639.195,169.685,637.93,165.318Z" transform="translate(-538.952 -140.792)" fill="#ffc39c"/>
      <path id="Path_656" data-name="Path 656" d="M616.8,202.053a33.325,33.325,0,0,0-1.265,9.066c.181,4.126-2.229-1.145-2.922-3.674-.422-1.536-1.114-9.367-1.114-9.367S617.885,196.6,616.8,202.053Z" transform="translate(-547.248 -173.973)" fill="#262320"/>
      <path id="Path_657" data-name="Path 657" d="M885.737,501.3l17.137,20.751L881.7,526.72l-13.1-12.71Z" transform="translate(-726.915 -385.998)" fill="#f9a97d"/>
      <g id="Group_11" data-name="Group 11" transform="translate(0.98 63.71)">
        <path id="Path_658" data-name="Path 658" d="M573.2,812.481a3.13,3.13,0,0,0-.3-.181S572.99,812.6,573.2,812.481Z" transform="translate(-521.253 -667.041)" fill="#e5625a"/>
        <path id="Path_659" data-name="Path 659" d="M560.918,381.592s-1.325-3.945-9.7-18.1c-8.4-14.155-16.053-23.763-24.275-28.16C518.663,330.964,492.43,330,492.43,330s-3.7,15.179-11.836,16.475c-5.933.241-14.607-13.945-14.607-13.945s-37.015,18.1-46.2,27.016-13.131,22.287-16.264,34.365-1.837,14.155-1.837,14.155l24.667,12.318s3.735-7.048,7.951-13.493h0s13.824,15.089,19.336,29.757c5.481,14.728,3.373,29.666,1.566,34.937-.994,2.861-1.536,3.7-1.807,3.855,2.138,1.355,16.535,9.939,32.256,8.734,17.047-1.325,36.714-8.4,36.714-8.4s1.566-28.582,3.162-40.659c1.2-9.246,5.813-30.359,5.753-46.231l9.457,6.385Z" transform="translate(-401.419 -330)" fill="#2c7cb0"/>
      </g>
      <path id="Path_660" data-name="Path 660" d="M715.4,380.448a72.633,72.633,0,0,0-5.843-7.048c-9.608,21.655-60.146,135.712-60.658,140.711v.151a49.005,49.005,0,0,0,9.668.241l1.2-.09C662.574,507.756,705.221,407.042,715.4,380.448Z" transform="translate(-573.384 -296.619)" fill="#cc4542"/>
      <path id="Path_661" data-name="Path 661" d="M495.283,625.87a51.984,51.984,0,0,0,9.276,4.1C527.931,595.15,482,543.648,478.537,543.5c-3.584-.181-17.137,22.558-17.137,22.558a.527.527,0,0,0,.03.151l6.837,3.4s3.735-7.048,7.951-13.493c0,0,13.824,15.089,19.336,29.757,5.482,14.7,3.373,29.636,1.566,34.907C497.12,620.78,495.584,625.72,495.283,625.87Z" transform="translate(-442.355 -415.486)" fill="#215b82"/>
      <path id="Path_662" data-name="Path 662" d="M680.605,252.683s-3.765-.211-5.753,1.626a16.949,16.949,0,0,0-3.253,5.451s.181.181.843-.392,3.433-2.982,5.12-2.47a11.613,11.613,0,0,0,3.042.512l.843.873,2.741,1.988a6.187,6.187,0,0,0,.9-2.861,10.947,10.947,0,0,0-1.416-3.554,4.2,4.2,0,0,1-1.3.422C681.961,254.249,681.84,252.653,680.605,252.683Z" transform="translate(-589.247 -212.254)" fill="#302f2f"/>
      <g id="Group_12" data-name="Group 12" transform="translate(31.016 46.723)">
        <path id="Path_663" data-name="Path 663" d="M583.085,307.688a43.213,43.213,0,0,0,10.33.03c5.813-.693,13.071.9,12.439,5.572-.663,4.668-17.318,39.244-17.318,39.244l-34.515,69.482-43.852,84.933s-21.655,35.75,2.138,46.743c13.4,6.174,26.624-3.313,34.756-18.523s22.107-44.846,27.95-51.622c5.873-6.807,9.758-9.246,9.758-9.246L566.309,445l-12.981,14.758,41.141-94.691s18.583-44.785,19.486-47.376.633-15.993-11.535-16.6c-12.168-.632-13.282,4.126-19.426.392C576.851,297.719,576.67,307.387,583.085,307.688Z" transform="translate(-501.149 -292.478)" fill="#f99c38"/>
        <path id="Path_664" data-name="Path 664" d="M641.338,301.99c-12.168-.632-13.282,4.126-19.426.392a5.746,5.746,0,0,0-.964-.482,10.76,10.76,0,0,0-.391,1.536,12.8,12.8,0,0,0,7.5,1.867c3.855-.482,16.414-4.367,20.751,2.681,4.337,7.017,1.717,11.746-.964,19.125S557.188,529.02,557.188,529.02c-.783,1.747.181,4.427.181,4.427l14.517-25.992-.753-1.958,27.859-46.984s2.379-4.789,6.2-12.589v-.03l-12.921,14.758,41.141-94.691S652,321.176,652.9,318.585,653.506,302.593,641.338,301.99Z" transform="translate(-540.096 -293.376)" fill="#e5892e"/>
        <path id="Path_665" data-name="Path 665" d="M605.548,779.9s-6.987,7.108-12.981,14.788a418.366,418.366,0,0,0-19.818,40.689c-8.463,20.6-14.637,32.558-15.451,29.817v-.452h0c-.03,3.193,1.385,5.933,6.415,5.662,11.716-.6,28.733-58.881,34.937-68.1s12.258-2.891,12.258-2.891a13.166,13.166,0,0,0,3.7-5.21Z" transform="translate(-540.387 -627.412)" fill="#e5892e"/>
        <path id="Path_666" data-name="Path 666" d="M585.856,847.449l-7.379-11.716c-2.409-1.747-4.488-1.656-5.753,1.958,0,0,5.994,5.331.693,13.975-5.3,8.674-29.726,60.176-36.593,66.772s-26.745,15.029-34.124-4.819h0a17.931,17.931,0,0,0,10.662,13.222c13.4,6.174,26.624-3.313,34.756-18.523s22.107-44.846,27.95-51.622C581.971,849.888,585.856,847.449,585.856,847.449Z" transform="translate(-502.233 -665.656)" fill="#e5892e"/>
        <path id="Path_667" data-name="Path 667" d="M753.771,734.14c7.349,13.011,6.114,27.648-2.771,32.678s-22.077-1.446-29.425-14.487c-7.349-13.011-6.114-27.648,2.771-32.678S746.392,721.129,753.771,734.14Z" transform="translate(-651.836 -584.122)" fill="#f99c38"/>
        <path id="Path_668" data-name="Path 668" d="M755.3,757.246c5.482,9.668,5.361,20.119-.271,23.281-5.632,3.193-14.607-2.078-20.089-11.776-5.482-9.668-5.361-20.089.271-23.281C740.815,742.308,749.82,747.578,755.3,757.246Z" transform="translate(-661.709 -602.71)" fill="#63411f"/>
        <path id="Path_669" data-name="Path 669" d="M821.088,424.048a3.619,3.619,0,1,1-3.072-4.126A3.634,3.634,0,0,1,821.088,424.048Z" transform="translate(-719.695 -375.828)" fill="#c17530"/>
        <path id="Path_670" data-name="Path 670" d="M799.988,467.048a3.619,3.619,0,1,1-3.072-4.126A3.634,3.634,0,0,1,799.988,467.048Z" transform="translate(-704.95 -405.877)" fill="#c17530"/>
        <path id="Path_671" data-name="Path 671" d="M771.288,552.748a3.619,3.619,0,1,1-3.072-4.126A3.634,3.634,0,0,1,771.288,552.748Z" transform="translate(-684.894 -465.766)" fill="#c17530"/>
        <path id="Path_672" data-name="Path 672" d="M748.108,592.391a5.781,5.781,0,1,1-4.909-6.626A5.8,5.8,0,0,1,748.108,592.391Z" transform="translate(-665.69 -491.706)" fill="#c17530"/>
        <path id="Path_673" data-name="Path 673" d="M726.463,640.689a5.142,5.142,0,1,1-4.337-5.9A5.178,5.178,0,0,1,726.463,640.689Z" transform="translate(-651.453 -525.969)" fill="#c17530"/>
        <path id="Path_674" data-name="Path 674" d="M705.663,685.489a5.142,5.142,0,1,1-4.367-5.9A5.178,5.178,0,0,1,705.663,685.489Z" transform="translate(-636.918 -557.276)" fill="#c17530"/>
        <path id="Path_675" data-name="Path 675" d="M681.448,727.561a5.751,5.751,0,1,1-4.879-6.6A5.787,5.787,0,0,1,681.448,727.561Z" transform="translate(-619.149 -586.186)" fill="#c17530"/>
        <path id="Path_676" data-name="Path 676" d="M643.782,798.725a6.435,6.435,0,1,1-5.451-7.379A6.472,6.472,0,0,1,643.782,798.725Z" transform="translate(-591.874 -635.364)" fill="#c17530"/>
        <path id="Path_677" data-name="Path 677" d="M604.279,866.776a6.891,6.891,0,1,1-5.843-7.921A6.939,6.939,0,0,1,604.279,866.776Z" transform="translate(-563.634 -682.543)" fill="#c17530"/>
        <path id="Path_678" data-name="Path 678" d="M577.182,924.725a6.435,6.435,0,1,1-5.451-7.379A6.472,6.472,0,0,1,577.182,924.725Z" transform="translate(-545.332 -723.415)" fill="#c17530"/>
        <path id="Path_679" data-name="Path 679" d="M546.261,982.682a7.849,7.849,0,1,1-6.656-8.975A7.877,7.877,0,0,1,546.261,982.682Z" transform="translate(-521.76 -762.79)" fill="#c17530"/>
        <path id="Path_680" data-name="Path 680" d="M640.312,919.534c-1.265,3.4-4.548,5.331-7.379,4.307-2.8-1.024-4.066-4.638-2.831-8.072,1.265-3.4,4.548-5.331,7.379-4.307S641.547,916.1,640.312,919.534Z" transform="translate(-590.933 -719.159)" fill="#a86229"/>
        <path id="Path_681" data-name="Path 681" d="M632.352,923.542c2.108.331,4.578-1.687,5.753-4.849s.6-6.325-1.235-7.409c-2.65-.542-5.572,1.325-6.716,4.488C628.979,918.934,629.973,922.247,632.352,923.542Z" transform="translate(-590.955 -719.161)" fill="#bf7c4f"/>
        <path id="Path_682" data-name="Path 682" d="M605.512,999.634c-1.265,3.4-4.548,5.331-7.379,4.307-2.8-1.024-4.066-4.638-2.831-8.072,1.265-3.4,4.548-5.331,7.379-4.307C605.512,992.617,606.777,996.231,605.512,999.634Z" transform="translate(-566.614 -775.134)" fill="#a86229"/>
        <path id="Path_683" data-name="Path 683" d="M597.552,1003.742c2.108.331,4.578-1.687,5.753-4.849s.6-6.325-1.235-7.409c-2.65-.542-5.572,1.325-6.716,4.488C594.179,999.1,595.173,1002.447,597.552,1003.742Z" transform="translate(-566.636 -775.206)" fill="#bf7c4f"/>
        <path id="Path_684" data-name="Path 684" d="M704.276,273.689s7.439,2.289,10.18,4.156c2.741,1.9,9.156,5.632,9.156,5.632a2.667,2.667,0,0,0-2.831.693c-1.265,1.325-1.144,3.253.663,4.036s.241,1.265-3.343-.482c-3.554-1.717-11.866-6.566-13.372-7.59-1.476-1.024-3.162-1.807-3.584-2.681s-1.626-2.952-.512-3.072C701.716,274.291,703.041,273.3,704.276,273.689Z" transform="translate(-640.229 -273.598)" fill="#c1762b"/>
      </g>
      <path id="Path_685" data-name="Path 685" d="M832.412,553.846s-4.729-4.457-14.427-4.457-24.606,6.054-24.606,6.054l-2.018-.271s-2.921-6.777-6.686-6.987c-3.795-.211-11.385,4.307-11.264,5.542.09,1.235.151,2.078,2.018,1.747.271-.06.542-.12.783-.181-2.108.994-4.668,2.319-4.668,2.741,0,.723-.422,3.735,2.259,3.162,2.68-.6,8.614-2.741,8.614-2.741h1.536s-7.289,4.006-8.222,4.427-2.168,1.536-1.446,2.771,1.024,1.114,2.861.723c1.837-.422,8.1-3.072,8.1-3.072l-5.753,3.343s-2.259-.181-2.259,1.144,1.446,2.169,5.03,1.325a16.1,16.1,0,0,0,5.331-2.048,3.286,3.286,0,0,0,3.192.723c1.837-.6,2.47-2.349,3.283-2.56.06,0,.09-.06.151-.151,3.072,1.566,21.655,10.692,33.672,6.837C841.086,567.76,846.869,558.3,832.412,553.846Z" transform="translate(-659.073 -418.756)" fill="#ffc39c"/>
      <path id="Path_686" data-name="Path 686" d="M400.375,590.847c-1.717,5.331-4.7,18.161,1.717,31.052,4.638,9.307,38.581,26.745,38.581,26.745a30.873,30.873,0,0,0,4.367,10.15c3.1,4.367,3.735,2.711,6.837,7.469s6.626,10.993,8.493,10.361,1.867-2.289,0-4.759c-1.867-2.5-3.945-8.915-3.945-8.915S467,669.786,468.652,670s3.945-1.024,2.5-3.1-8.915-6.837-10.361-8.282a9.653,9.653,0,0,1-2.078-3.313s8.282,4.337,10.15,5.391c1.867,1.024,7.469,1.235,6.837-1.024-.633-2.289-13.463-9.939-13.463-9.939s.422-1.235,2.289-.632c1.867.632,9.216,3.524,11.234,3.1s4.307-4.156-1.506-6.024-8.282-3.735-8.282-3.735a7.359,7.359,0,0,0-6.415-3.524c-4.548,0-13.463.422-15.752-.422s-.181,1.265-7.831-13.674c-7.68-14.939-14.969-19.456-14.969-19.456s.512-1.416,1.235-3.584C422.24,601.78,400.585,590.245,400.375,590.847Z" transform="translate(-398.166 -448.559)" fill="#ffc39c"/>
      <path id="Path_687" data-name="Path 687" d="M600.784,137.631s4.457-16.655,7.861-18.432c3.4-1.747,23.4-.09,24.968,2.018s3.584,23.07,3.584,23.07,5.813,2.65,6.325,5.542-8.855,3.674-14.728,2.891a107.618,107.618,0,0,1-18.1-4.006c-4.849-1.416-7.981-3.735-10.993-5.512-2.229-1.325-5.512-4.939-4.578-6.024C596.055,136.155,600.784,137.631,600.784,137.631Z" transform="translate(-535.688 -118.466)" fill="#cf9b4f"/>
      <path id="Path_688" data-name="Path 688" d="M615.324,170.4a68.883,68.883,0,0,0,15.3,4.4c6.445.934,19.607,1.536,19.607,1.536l.452,4.277s-17.2-.09-23.974-1.747a47.87,47.87,0,0,1-12.409-4.939Z" transform="translate(-549.205 -154.758)" fill="#591106"/>
      <path id="Path_689" data-name="Path 689" d="M608.688,211.7l.572,5.391s-2.078-.994-2.168-2.681A3.292,3.292,0,0,1,608.688,211.7Z" transform="translate(-544.165 -183.62)" fill="#f9a97d"/>
    </g>
  </g>
</svg>
